<?xml version="1.0" encoding="UTF-8"?>
<svg fill="#034ea2" id="Layer_2" data-name="Layer 2" xmlns="http://www.w3.org/2000/svg" viewBox="0 0 216.24 219.26">
  <g id="Layer_1-2" data-name="Layer 1">
    <path d="M89.81,212.82l-23.99-10.59-.24,7.37c-.18,5.59-4.59,9.68-10.21,9.66l-45.94-.2C3.03,219.03,0,213.08,0,207.53l.07-109.82c0-5.48,5.56-9.25,10.21-9.25l46.08.06c4.03,0,7.61,3.5,9.14,6.87l29.31-42.31c3.68-5.31,6.77-11.12,7.37-17.67l2.38-25.62C105.33,1.59,113.36-.5,120.3.1c15.66,1.35,28.08,10.25,32.1,25.74,2.13,9.03,2.25,18.8-.7,27.86l-8.11,24.92,45.72-.11c16.51-.04,28.86,13.21,26.69,29.84-.72,5.49-3.76,10.23-8.07,14.31,6.94,10.59,5.36,24.29-5.42,31.78,5.21,10.79,2.32,22.84-8.66,29.35,4.52,13.81-4.58,31.84-19.97,31.97l-64.57.54c-6.46.05-13.37-.78-19.5-3.49ZM186.1,151.19c.77-5.73,11.26-4.15,12.74-13.49,1.63-10.34-8-11.63-7.6-16.42.56-6.66,14.36-6.56,11.91-19.14-.85-4.36-5.04-10.19-11.17-10.21l-58.65-.11c-4.04,0-6.84-4.21-5.56-7.86l11.11-31.65c2.52-7.17,2.68-15.17,1.15-22.39-2.37-11.19-12.54-17.93-23.16-16.09l-2.15,24.04c-.69,7.75-4.19,15.07-8.66,21.45l-34.52,49.25.09,81.72,18.93,9.08c4.37,2.1,10.7,3.71,15.77,3.71l64.76.02c4.48,0,8.46-3.18,9.99-6.37,4.46-9.31-4.56-13.2-3.13-17.43,1.53-4.55,10.41-3.47,13.19-10.47,4.24-10.68-5.73-12.31-5.02-17.64ZM12.78,101.64l-.02,104.48h40.44s.02-104.48.02-104.48H12.78Z"/>
  </g>
</svg>