<?xml version="1.0" encoding="UTF-8"?>
<svg fill="#000" id="Layer_2" data-name="Layer 2" xmlns="http://www.w3.org/2000/svg" viewBox="0 0 201.27 182.54">
  <defs>
    <style>
      .cls-1 {
        stroke: #000;
        stroke-miterlimit: 10;
      }
    </style>
  </defs>
  <g id="Layer_1-2" data-name="Layer 1">
    <g>
      <path d="M146.14,182.34l-86.62.2c-.71,0-2.22-.51-2.71-.9-2.93-2.41,5.3-14.62,17.87-13.18l3.35-15.25-63.54-.08C7.24,153.11,0,146.89,0,138.99L.09,13.15C.1,4.02,9.05,0,16.59,0l170.01.03c9.09,0,14.66,6.85,14.66,15.54l-.08,121.72c0,9.83-7.38,15.97-16.66,15.96l-61.61-.11,3.79,15.37c8.77,0,17.29,2.55,19.43,13.83ZM196.08,122.48l.04-109.54c-1.1-5.19-5.25-8.19-10.77-7.72l-167.71.06c-6.98-1.28-12.66,3.25-12.67,10.32l-.04,106.87h191.14ZM184.8,148.11c7.54,0,11.49-5.17,11.35-11.72l-.19-8.87-190.98-.02.14,11.18c.06,4.74,4.47,9.39,9.69,9.39l169.99.04ZM121.28,168.46l-3.23-15.23-35.11-.07-2.82,15.27,41.16.03ZM138.56,177.63c-2.69-3.52-6.29-4.33-10.05-4.47l-57.07-.05c-3.15,0-6.38,1.88-8.14,4.44l75.26.08Z"/>
      <circle cx="100.92" cy="137.19" r="3.25"/>
      <g>
        <path class="cls-1" d="M98.95,90.13h60.28c1.26,0,2.28-1.05,2.28-2.34v-22.5c0-2.18-.79-4.27-2.22-5.88l-10.81-12.22c-3.38-4.01-6.1-9.77-8.13-17.17-1.38-5.05-5.96-8.58-11.14-8.58h-50.1c-5.18,0-9.76,3.53-11.14,8.58-2.02,7.39-4.75,13.16-8.11,17.14l-10.84,12.25c-1.43,1.62-2.22,3.71-2.22,5.88v22.5c0,1.29,1.02,2.34,2.28,2.34h49.85ZM159.23,93.15H49.1c-2.93,0-5.31-2.41-5.31-5.37v-22.5c0-2.92,1.06-5.72,2.98-7.89l10.81-12.22c3.04-3.61,5.57-9,7.48-15.96,1.74-6.36,7.52-10.8,14.06-10.8h50.1c6.54,0,12.32,4.44,14.06,10.8,1.91,6.97,4.43,12.35,7.5,15.99l10.79,12.19c1.92,2.17,2.98,4.97,2.98,7.89v22.5c0,2.96-2.38,5.37-5.31,5.37h0Z"/>
        <path class="cls-1" d="M55.01,93.15v8.45c0,2.03,1.62,3.69,3.6,3.69h9.15c1.99,0,3.6-1.65,3.6-3.69v-8.45h-16.35ZM67.76,108.31h-9.15c-3.65,0-6.62-3.01-6.62-6.71v-9.96c0-.83.68-1.51,1.51-1.51h19.37c.84,0,1.51.68,1.51,1.51v9.96c0,3.7-2.97,6.71-6.63,6.71h0Z"/>
        <path class="cls-1" d="M136.97,93.15v8.45c0,2.03,1.61,3.69,3.6,3.69h9.15c1.98,0,3.6-1.65,3.6-3.69v-8.45h-16.35ZM149.72,108.31h-9.15c-3.65,0-6.62-3.01-6.62-6.71v-9.96c0-.83.68-1.51,1.51-1.51h19.37c.83,0,1.51.68,1.51,1.51v9.96c0,3.7-2.97,6.71-6.62,6.71h0Z"/>
        <path class="cls-1" d="M128.01,83.12h-47.69c-.83,0-1.51-.68-1.51-1.51s.68-1.51,1.51-1.51h47.69c.83,0,1.51.68,1.51,1.51s-.68,1.51-1.51,1.51h0Z"/>
        <path class="cls-1" d="M137.69,50.72h-68.55c-.84,0-1.51-.68-1.51-1.51s.68-1.51,1.51-1.51h68.55c.84,0,1.51.68,1.51,1.51s-.68,1.51-1.51,1.51h0Z"/>
        <path class="cls-1" d="M151.27,48.7c-.46,0-.91-.21-1.21-.6-.5-.66-.37-1.61.3-2.11l6.86-5.18c.4-.32.49-.93.16-1.38-1.26-1.74-1.84-2.54-12.22.22-.81.21-1.64-.27-1.85-1.07-.21-.81.27-1.64,1.07-1.85,10.94-2.91,13.02-2.45,15.45.94,1.28,1.77.94,4.2-.77,5.54l-6.88,5.19c-.27.21-.59.3-.91.3h0Z"/>
        <path class="cls-1" d="M56.81,49.11c-.32,0-.64-.1-.91-.31l-6.86-5.18c-1.73-1.36-2.07-3.79-.8-5.56,2.44-3.38,4.51-3.85,15.45-.94.81.21,1.29,1.04,1.07,1.85-.22.81-1.05,1.28-1.85,1.07-10.39-2.76-10.96-1.96-12.22-.22-.32.45-.24,1.06.19,1.4l6.84,5.16c.67.5.8,1.45.3,2.12-.3.39-.75.6-1.21.6h0Z"/>
        <path class="cls-1" d="M75.11,71.18h-11.06c-2.03,0-4.01-.95-5.42-2.61l-4.04-4.74c-.54-.64-.47-1.59.17-2.13.64-.54,1.59-.46,2.13.17l4.04,4.74c.85,1,1.96,1.55,3.12,1.55h11.06c.84,0,1.51.68,1.51,1.51s-.68,1.51-1.51,1.51h0Z"/>
        <path class="cls-1" d="M144.28,70.42h-11.06c-.84,0-1.51-.68-1.51-1.51s.68-1.51,1.51-1.51h11.06c1.16,0,2.27-.55,3.12-1.55l4.04-4.74c.54-.63,1.49-.71,2.13-.17.64.54.71,1.5.17,2.13l-4.04,4.74c-1.41,1.66-3.39,2.61-5.42,2.61h0Z"/>
      </g>
    </g>
  </g>
</svg>