<?xml version="1.0" encoding="UTF-8"?>
<svg id="Layer_2" data-name="Layer 2" xmlns="http://www.w3.org/2000/svg" viewBox="0 0 109.18 109.18">
  <defs>
    <style>
      .cls-1 {
        fill: #fff;
      }

      .cls-2 {
        fill: #052656;
      }
    </style>
  </defs>
  <g id="Layer_1-2" data-name="Layer 1">
    <g>
      <circle class="cls-2" cx="54.59" cy="54.59" r="54.59"/>
      <g id="Generative_Object_0_0_" data-name="Generative Object (0, 0)">
        <path class="cls-1" d="M54.59,28.88l-13.37,6.98-10.94,5.75-1.67.87v1.55s0,35.53,0,35.53v1.57s-4.59,0-4.59,0c-.23,0-.45-.23-.45-.48v-35.73s-3.79,1.91-3.79,1.91c-.16.08-.42.11-.57.04-.14-.06-.3-.29-.3-.49v-4.8s12.52-6.44,12.52-6.44l15.03-7.72,7.62-3.9c.37-.19.6-.24,1-.04l15.11,7.69,7.7,3.98,12.38,6.41v4.96c-.09.34-.44.48-.77.36l-3.86-1.96v35.72c0,.22-.19.49-.42.49h-4.64s0-38.64,0-38.64l-9.02-4.75-16.97-8.85Z"/>
        <path class="cls-1" d="M65.96,80.45v-2.35s-22.98,0-22.98,0v2.34c-.01.39-.3.66-.68.69h-5.03c-.36,0-.62-.37-.62-.68v-2.51c-.21-.11-.42-.33-.42-.61v-8.31c.15-1.08.45-2.04,1.16-2.85l1.59-1.82c-.12-.13-.39-.36-.57-.36l-1.65-.03c-.71-.01-1.13-.59-1.14-1.25s.43-1.28,1.15-1.28h1.57c.66-.02,1.14.43,1.23,1.08.03.23.16.45.33.58l2.82-5.29c.56-1.05,1.73-1.81,2.97-1.81h17.48c1.46,0,2.58.93,3.22,2.15l2.62,4.97c.19-.21.28-.45.34-.71.13-.57.58-1,1.18-.99h1.64c.68.02,1.08.6,1.11,1.23s-.39,1.29-1.11,1.3l-1.72.03c-.16,0-.41.25-.53.39l1.19,1.31c.83.92,1.51,2.04,1.52,3.34l.03,8.23c0,.31-.13.54-.4.68v2.49c0,.42-.32.69-.73.69h-4.95c-.35-.05-.63-.31-.63-.68ZM67.39,63.63l-2.5-4.75c-.37-.7-.88-1.18-1.72-1.27h-17.39c-.63.1-1.23.36-1.54.93l-2.7,5.09h25.84ZM45.04,70.82c.45,0,.59-.43.6-.73.02-.65-.29-1.07-.88-1.25-1.71-.5-3.4-.95-5.18-1.16-.55-.07-.97.36-.97.87v1.38c0,.55.43.91.97.91h5.46ZM69.55,70.82c.43,0,.75-.48.75-.82v-1.52c0-.24-.16-.54-.32-.65-.21-.15-.54-.17-.81-.13-1.69.22-3.29.65-4.91,1.12-.62.18-1.04.64-.99,1.33.03.34.28.68.67.68h5.61ZM61.46,75.33c.22,0,.45-.09.55-.21.09-.1.2-.41.16-.56l-.48-1.63c-.13-.44-.47-1.02-1.04-1.02h-12.33c-.58,0-.91.51-1.04.95l-.48,1.58c-.05.16-.04.46.06.6.08.12.3.28.51.28h14.09Z"/>
        <path class="cls-1" d="M76.99,52.31h-44.79s0,28.81,0,28.81h-2.17s0-37.74,0-37.74c0-.3.19-.52.5-.52h48.13c.35,0,.5.27.5.57v37.69s-2.16,0-2.16,0v-28.81ZM77,45.8h-44.81s0,1.19,0,1.19h44.81s0-1.19,0-1.19ZM32.19,49.01v1.16s44.81,0,44.81,0v-1.16s-44.81,0-44.81,0Z"/>
      </g>
    </g>
  </g>
</svg>