<?xml version="1.0" encoding="UTF-8"?>
<svg fill="#000" id="Layer_2" data-name="Layer 2" xmlns="http://www.w3.org/2000/svg" viewBox="0 0 221.24 178.91">
  <defs>
    <style>
      .cls-1 {
        stroke: #000;
        stroke-miterlimit: 10;
        stroke-width: .94px;
      }
    </style>
  </defs>
  <g id="Layer_1-2" data-name="Layer 1">
    <g>
      <path d="M200.87,68.6l5.11-.36-.04,110.58-25.66.05.03-91.89c0-1.5-1.87-3.53-3.49-3.53l-132.21-.02c-2.81,0-3.87,3.05-3.87,5.57l-.13,89.89-25.6.02-.07-109.8,1.98-1.91c.54-.52,2.44.49,2.98,1.09l-.05,105.67,15.76.03v-85.98c0-4.5,2.37-9.63,7.97-9.63h133.31c4.94,0,8.51,4.01,8.52,8.6l.09,87.01,15.31.08.03-105.47Z"/>
      <path d="M216.24,71.24L109.53,5.08,3.78,71.48c-1.35.06-3.37-.36-3.68-1.26-.46-1.32.79-3.22,2.29-4.15L106.74.61c1.01-.63,4.25-.86,5.2-.27l106.93,65.97c1.55.96,2.61,2.58,2.32,3.89-.24,1.1-3.22,2.11-4.96,1.04Z"/>
      <g>
        <path class="cls-1" d="M105.7,157.9h56.92c1.19,0,2.15-.99,2.15-2.21v-21.25c0-2.06-.75-4.03-2.1-5.56l-10.21-11.54c-3.19-3.78-5.76-9.23-7.67-16.21-1.31-4.77-5.63-8.1-10.52-8.1h-47.31c-4.89,0-9.21,3.33-10.52,8.1-1.91,6.98-4.49,12.42-7.65,16.18l-10.23,11.56c-1.35,1.53-2.09,3.5-2.09,5.56v21.25c0,1.22.97,2.21,2.15,2.21h47.07ZM162.62,160.75H58.62c-2.76,0-5.01-2.27-5.01-5.07v-21.25c0-2.75,1-5.4,2.81-7.45l10.21-11.54c2.87-3.41,5.26-8.49,7.06-15.07,1.64-6,7.1-10.2,13.27-10.2h47.31c6.17,0,11.63,4.2,13.27,10.2,1.8,6.58,4.18,11.66,7.08,15.1l10.19,11.51c1.81,2.05,2.81,4.69,2.81,7.45v21.25c0,2.79-2.25,5.07-5.01,5.07h0Z"/>
        <path class="cls-1" d="M64.21,160.75v7.98c0,1.92,1.53,3.48,3.4,3.48h8.64c1.88,0,3.4-1.56,3.4-3.48v-7.98h-15.43ZM76.25,175.06h-8.64c-3.45,0-6.25-2.84-6.25-6.33v-9.4c0-.79.64-1.43,1.43-1.43h18.29c.79,0,1.43.64,1.43,1.43v9.4c0,3.49-2.81,6.33-6.26,6.33h0Z"/>
        <path class="cls-1" d="M141.6,160.75v7.98c0,1.92,1.52,3.48,3.4,3.48h8.64c1.87,0,3.4-1.56,3.4-3.48v-7.98h-15.43ZM153.63,175.06h-8.64c-3.45,0-6.25-2.84-6.25-6.33v-9.4c0-.79.64-1.43,1.43-1.43h18.29c.79,0,1.43.64,1.43,1.43v9.4c0,3.49-2.81,6.33-6.25,6.33h0Z"/>
        <path class="cls-1" d="M133.13,151.28h-45.03c-.79,0-1.43-.64-1.43-1.43s.64-1.43,1.43-1.43h45.03c.79,0,1.43.64,1.43,1.43s-.64,1.43-1.43,1.43h0Z"/>
        <path class="cls-1" d="M142.28,120.69h-64.72c-.79,0-1.43-.64-1.43-1.43s.64-1.43,1.43-1.43h64.72c.79,0,1.43.64,1.43,1.43s-.64,1.43-1.43,1.43h0Z"/>
        <path class="cls-1" d="M155.1,118.78c-.43,0-.86-.2-1.14-.57-.47-.63-.35-1.52.28-2l6.48-4.89c.38-.3.46-.88.15-1.3-1.19-1.65-1.74-2.4-11.54.21-.76.2-1.54-.25-1.75-1.01-.2-.76.25-1.54,1.01-1.75,10.33-2.74,12.29-2.31,14.59.89,1.2,1.67.88,3.97-.73,5.23l-6.5,4.9c-.26.19-.56.29-.86.29h0Z"/>
        <path class="cls-1" d="M65.9,119.17c-.3,0-.6-.09-.86-.29l-6.48-4.89c-1.63-1.28-1.95-3.58-.75-5.25,2.3-3.19,4.26-3.63,14.59-.89.76.2,1.22.99,1.01,1.75-.2.76-.99,1.21-1.75,1.01-9.81-2.61-10.35-1.85-11.54-.21-.3.42-.23,1,.18,1.32l6.46,4.87c.63.47.76,1.37.28,2-.28.37-.71.57-1.14.57h0Z"/>
        <path class="cls-1" d="M83.18,140.01h-10.44c-1.92,0-3.78-.9-5.12-2.46l-3.82-4.48c-.51-.6-.44-1.5.16-2.02.6-.51,1.5-.44,2.01.16l3.82,4.48c.8.94,1.85,1.46,2.95,1.46h10.44c.79,0,1.43.64,1.43,1.43s-.64,1.43-1.43,1.43h0Z"/>
        <path class="cls-1" d="M148.5,139.29h-10.44c-.79,0-1.43-.64-1.43-1.43s.64-1.43,1.43-1.43h10.44c1.1,0,2.14-.52,2.95-1.46l3.82-4.48c.51-.6,1.41-.67,2.01-.16.6.51.67,1.41.16,2.02l-3.82,4.48c-1.33,1.56-3.2,2.46-5.12,2.46h0Z"/>
      </g>
    </g>
  </g>
</svg>