<?xml version="1.0" encoding="UTF-8"?>
<svg fill="#000" id="Layer_2" data-name="Layer 2" xmlns="http://www.w3.org/2000/svg" viewBox="0 0 226.81 147.99">
  <g id="Layer_1-2" data-name="Layer 1">
    <g>
      <path d="M13.8,142.83l144.25.07c6.42,0,11-3.39,10.71-10.1l-.08-29.97,1.99-2.89c.54-.78,3.12,1.48,3.11,2.85l-.04,32.07c0,6.62-5.65,13.13-12.66,13.12l-148.85-.03C4.93,147.96,0,140.63,0,133.92L.07,13.98C.08,6.32,6.51,0,14.27,0l145.78.02c7.43,0,13.48,6.22,13.54,13.3l.11,12.76c0,.83-1.52,2.57-2.17,2.91-.81.42-2.87-1.41-2.88-2.43l-.06-11.54c-.03-5.77-3.91-9.71-9.63-9.71H15.31c-4.93.01-10.07,3.37-10.07,8.77l-.06,119.72c0,4.45,3.37,9.03,8.62,9.03Z"/>
      <path d="M181.16,78.88l-28.53,27.64-25.95,15.95c-4.4,2.7-10.13,6.1-13.72,2.11-.64-.71-.66-3.04-.18-3.96l9.65-18.41c2.88-5.5,4.45-12.63,8.77-17.25l39.63-42.31,25.5-26.52c3.51-3.65,7.66-6.27,12.33-6.37,5.21-.12,9.81,2.2,13.45,6.29,4.29,4.81,6.48,11.89,2.94,17.94l-7.15,9.01c4.55,3.07,6.18,10.47,1.89,14.79l-30.32,30.53c-1.12,1.12-4.24,2-5.35,1.13s-.98-3.92-.58-5.62l.98-4.14c.22-.92,3.01.46,4.05,1.28l27.09-26.46c.74-.72,1.77-3.12,1.62-4.08-.18-1.16-1.68-2.62-3.46-3.99l-32.65,32.44ZM209.71,42.89l10.38-10.98c3.65-3.86.25-10.14-3-13.3-2.79-2.72-8.79-5.61-12.53-2.07l-10.92,10.34,16.07,16.01ZM170.87,81.18l16.32-16.14,18.38-18.66-15.52-15.73-23.11,24.14-29.46,31.38,14.34,14.15,19.05-19.15ZM130.86,112.99l16.33-9.29-13.41-13.52-7.8,17.89,4.88,4.92Z"/>
      <path d="M110.46,93.33c-4.84,5.11-13.13,6.74-18.43-.3-7.25,3.12-13.94,13.14-19.14,8.3l-2.57-2.39c-1.07-.99-7.04,4.23-10.18,1.66-1.32-1.08-1.86-4.13-2.41-7.07l-12.67,16.3c-2.34,3.01-7.46,3.83-10.34,2.13-3.18-1.87-4.63-6.01-4.87-10.02l-2.61,1.86c-.64.46-2.38-.11-2.94-.67s-.19-2.95.3-3.71l18.4-28.5c3.8-5.88,5.98-12.31,11.19-16.86,2.95-2.57,7.48-3.55,10.36-1.98,9.65,5.26,2.15,22.84-3.28,34.52l3.45,1.34c.74.29.03,2.77-.26,3.5l-.83,4.55,12.78-7.66c.98-.59,3.74-.22,4.49.49.9.85-.16,3.51-1.4,4.24-2,1.17-3.01,2.13-3.49,4.02l10.91-7.54c2.69-1.86,6.83-2.26,9.15.34,5.5,6.16,10.99-1.26,14.36-.43.92.23.76,3.12.04,3.89ZM35.25,103.84c.07,1.09,1.5,3.69,2.51,3.44l3.8-.98c10.98-12.64,18.96-26.78,22.63-43.32.48-2.05-1.01-7.05-2.8-6.63-5.88,1.36-8.21,7.2-11.03,11.76l-15.75,25.54.64,10.2Z"/>
      <rect x="137.59" y="63.36" width="57.26" height="5.03" transform="translate(2.29 137.26) rotate(-45.15)"/>
    </g>
  </g>
</svg>