<?xml version="1.0" encoding="UTF-8"?>
<svg fill="#034ea2" id="Layer_2" data-name="Layer 2" xmlns="http://www.w3.org/2000/svg" viewBox="0 0 285.51 191.74">
  <g id="Layer_1-2" data-name="Layer 1">
    <g>
      <path d="M200.58,191.7l-111.25.04c-10.65,0-18.91-7.72-18.81-18.51.07-7.8-.53-15.78.28-23.59,2.38-23,16.85-41.95,37.05-52.92,27.2-14.77,61.03-10.93,84.2,9.72,12.77,11.38,21.1,26.65,22.56,43.81l.34,20.42c.16,9.6-4.15,18.1-14.36,21.03ZM196.2,179.15c3.86,0,6.67-1.72,6.62-6l-.22-21.74c-.15-14.81-8.55-27.41-19.77-36.84-23.01-19.35-56.98-19.07-80.28-.04-11.34,9.26-19.57,22.09-19.69,36.9l-.19,22.77c-.02,2.76,2.78,4.93,5.66,4.93l107.87.03Z"/>
      <path d="M183.74,41.12c0,22.71-18.4,41.12-41.1,41.12s-41.1-18.41-41.1-41.12S119.94,0,142.64,0s41.1,18.41,41.1,41.12ZM171.58,41.19c0-15.98-12.95-28.93-28.92-28.93s-28.92,12.95-28.92,28.93,12.95,28.93,28.92,28.93,28.92-12.95,28.92-28.93Z"/>
      <path d="M228.72,170.32l42.58-.2c1.86,0,3.61-1.9,3.57-3.63l-.29-14.22c-.26-12.95-7.05-24.47-17.7-31.65-13.03-8.8-28.52-9.88-43.55-4.65l-5.78-8.29c19.61-9.83,43.07-6.55,59.86,7.35,10.37,8.59,17.76,20.67,17.89,34.25l.19,19.05c.07,7.32-6.2,12.87-13.24,13.03l-43.11.02c-1.57-1.19-3.1-3.11-3.6-4.51-.57-1.57,1.41-6.54,3.17-6.55Z"/>
      <path d="M55.05,170.07c2.49,0,4.45,3.08,4.76,4.78s-1.03,5.9-2.72,6.35l-41.83.26C7.43,181.51-.05,176.9,0,168.23l.11-18.99c.08-13.33,7.38-25.27,17.42-33.71,16.63-13.98,39.21-17.83,59.76-8.31l-6.01,9.11c-10.74-4.41-21.26-4.64-32.1-1-15.48,5.19-27.09,18.56-28.29,35.19l.06,19.4,44.11.14Z"/>
      <path d="M262.69,66.68c0,17.4-14.1,31.5-31.49,31.5s-31.49-14.1-31.49-31.5,14.1-31.5,31.49-31.5,31.49,14.1,31.49,31.5ZM251.83,66.86c0-11.39-9.23-20.62-20.61-20.62s-20.61,9.23-20.61,20.62,9.23,20.62,20.61,20.62,20.61-9.23,20.61-20.62Z"/>
      <path d="M85.4,66.62c0,17.37-14.08,31.45-31.44,31.45s-31.44-14.08-31.44-31.45,14.08-31.45,31.44-31.45,31.44,14.08,31.44,31.45ZM74.55,66.82c0-11.4-9.24-20.65-20.64-20.65s-20.64,9.25-20.64,20.65,9.24,20.65,20.64,20.65,20.64-9.25,20.64-20.65Z"/>
    </g>
  </g>
</svg>