<?xml version="1.0" encoding="UTF-8"?>
<svg fill="#000" id="Layer_2" data-name="Layer 2" xmlns="http://www.w3.org/2000/svg" viewBox="0 0 161.27 201.8">
  <g id="Layer_1-2" data-name="Layer 1">
    <g>
      <path d="M150.38,201.8l-140.23-.16C3.87,201.63,0,194.06,0,188.64L.02,10.85C1.4,4.68,6,.76,12.11,0l100.22.08,48.88,48.17.06,139.32c0,7.09-3.2,12.72-10.89,14.23ZM156.12,190.09l.05-137.38h-42.08c-3.08-1.03-5.08-3.63-5.62-6.88l.05-40.47-95.51-.02c-3.63,0-7.6,2.71-7.6,6.9l-.03,177.11c0,5.21,4.35,7.29,8.68,7.28l133.87-.03c3.37,0,8.21-1.91,8.21-6.49ZM152.44,47.36L113.76,8.94l-.06,38.67,38.74-.25Z"/>
      <rect x="28.57" y="86.12" width="103.99" height="5.51"/>
      <rect x="28.84" y="119.62" width="103.94" height="5.19"/>
      <rect x="28.86" y="152.77" width="88.18" height="5.48"/>
      <path d="M84.7,58.5l-52.57-.04c-1.27-.21-3.47-1.22-3.46-2.22s1.5-2.54,2.61-3.11l53.41-.03,2.63,2.21c.77.65-1.62,2.98-2.62,3.19Z"/>
    </g>
  </g>
</svg>