<?xml version="1.0" encoding="UTF-8"?>
<svg id="Layer_2" data-name="Layer 2" xmlns="http://www.w3.org/2000/svg" viewBox="0 0 109.18 109.18">
  <defs>
    <style>
      .cls-1 {
        fill: #fff;
      }

      .cls-2 {
        fill: #052656;
      }
    </style>
  </defs>
  <g id="Layer_1-2" data-name="Layer 1">
    <g>
      <circle class="cls-2" cx="54.59" cy="54.59" r="54.59"/>
      <g>
        <path class="cls-1" d="M49.54,88.78c-3.55-.66-7.76-2-10.92-3.75-3.66-2.03-5.4-6.06-4.98-10.19l.65-6.54c1.37-10.56,3.97-20.88,7.8-30.84,1.62-4.2,3.37-8.33,5.46-12.31,1.5-2.85,4.72-4.42,7.87-4.16,6.42.53,14.26,3.15,19.67,6.54,3.11,1.96,4.34,5.5,3.68,9.01-1.06,5.68-2.45,11.24-4.25,16.76-1.97,6.03-4.28,11.91-7.07,17.59-2.3,4.68-4.79,9.19-7.65,13.54-.88,1.34-2.05,2.39-3.42,3.2-2.09,1.23-4.46,1.59-6.84,1.15ZM57.18,27.48c.33-.99-.21-2.06-1.2-2.39s-2.06.21-2.39,1.2.21,2.06,1.2,2.39,2.06-.21,2.39-1.2ZM54.57,77.16c2.22.06,3.66-1.18,4.75-3.05,1.16-2,2.21-4.01,3.21-6.11,3.85-8.1,6.84-16.55,8.97-25.26l.45-2.5c.17-1.38-.42-2.64-1.58-3.42-1.04-.7-2.13-1.23-3.3-1.73-3.56-1.52-7.92-2.93-11.74-3.46-1.95-.27-3.78-.11-4.99,1.56-.41.57-.7,1.15-.99,1.81-2.84,6.43-5.03,13.07-6.74,19.91-.98,3.93-1.78,7.84-2.32,11.83l-.2,2.24c-.04,1.68.76,3.18,2.16,4.13,1.28.87,2.62,1.52,4.08,2.09,2.56.99,5.55,1.89,8.26,1.95ZM50.53,85.29c.86.1,1.66-.21,2.19-.81.36-.4.48-.92.33-1.44-.11-.36-.42-.83-.91-.97-3.73-1.07-7.35-2.27-10.97-3.64-.5-.19-1.04.02-1.36.27-.43.33-.59.85-.54,1.36.1.97.73,1.64,1.58,2.11,2.99,1.66,6.23,2.72,9.69,3.11Z"/>
        <path class="cls-1" d="M63.01,63.7l-19.5-6.47c-.15-.05-.33-.15-.38-.24-.06-.1-.04-.33,0-.5.97-3.95,2.05-7.8,3.37-11.65.08-.22.32-.38.56-.3l20.58,6.82c.24.08.36.35.29.58-1.26,3.9-2.68,7.67-4.3,11.43-.1.23-.28.43-.62.32ZM50.78,56.62c-.17.52.12.88.6,1.04l5.05,1.67c.4.13.84.03.99-.42l1.18-3.53c.15-.45-.04-.84-.46-1.03.24-.47.5-.91.59-1.37.23-1.21-.44-2.37-1.48-2.81-1.14-.48-2.38-.12-3.11.91-.12.17-.09.46.04.57.11.1.49.13.59.02.53-.7,1.31-1.02,2.12-.67.71.3,1.17,1.14.92,1.95-.12.39-.36.77-.58,1.11l-4.43-1.45c-.38-.13-.76.23-.87.56l-1.15,3.47Z"/>
        <path class="cls-1" d="M67.99,50.52l-20.63-6.84c-.25-.08-.35-.35-.27-.58,1.06-2.92,2.15-5.76,3.46-8.57.74-1.6,2.06-2.29,3.79-2.12,3.8.37,8.13,1.78,11.69,3.23,1.26.51,2.43,1.05,3.6,1.73,1.45.85,1.62,2.03,1.3,3.63-.63,3.13-1.5,6.14-2.43,9.2-.06.2-.23.3-.5.32ZM60.97,45.99c.4.13.78-.14.89-.47l1.19-3.62c.13-.41-.14-.82-.59-.92l.34-1.1c.38-1.24-.17-2.63-1.38-3.2-1.33-.63-3.03-.04-3.52,1.34l-.45,1.26c-.55-.16-.94.03-1.12.56l-1.14,3.47c-.14.44.13.83.53.96l5.24,1.73Z"/>
        <path class="cls-1" d="M54.62,76.27c-2.81-.11-6.06-1.12-8.68-2.21-1.17-.48-2.24-1.03-3.27-1.73-1.19-.8-1.87-2.08-1.7-3.5l.44-3.67,1.26-6.7c.06-.3.32-.44.62-.34l19.32,6.41c.24.08.36.33.26.55-1.35,3.01-2.79,5.91-4.45,8.75-.88,1.51-2.03,2.51-3.81,2.44ZM52.38,70.35c.28-.92,1.16-1.29,1.94-1.03s1.22,1.11.95,1.96c.31.14.72.32,1.06.25.56-.12.76-.78.57-1.26l.2-.74c.15-.53-.16-.97-.66-1.17-.38-.15-.64-.44-.78-.8l-.61-1.6c-.08-.2-.4-.48-.62-.55l-3.6-1.2c-.88-.29-2.14.82-3.14.96l-2.09-.14c-.45.05-.93.13-1.15.58l-.49,1.04c-.14.31-.13.8.22.94l.6.24c.27-.89,1.16-1.32,1.99-1.01.77.28,1.19,1.13.89,1.96l4.7,1.56ZM47.3,68.64c.19-.59-.12-1.22-.71-1.41s-1.22.12-1.41.71.12,1.22.71,1.41,1.22-.12,1.41-.71ZM54.89,71.15c.19-.59-.12-1.22-.71-1.41s-1.22.12-1.41.71.12,1.22.71,1.41,1.22-.12,1.41-.71Z"/>
        <path class="cls-1" d="M54.81,57.57l-1.16-.38.59-1.18c-.33-.42-.28-1.02.14-1.33.45-.33,1.08-.15,1.31.34.24.51-.05,1.08-.64,1.22l-.23,1.32Z"/>
        <path class="cls-1" d="M61.57,40.66l-3.23-1.09.35-1.07c.3-.91,1.31-1.4,2.19-1.09s1.38,1.32,1.05,2.24l-.36,1Z"/>
        <path class="cls-1" d="M59.25,44.16c-.43-.08-.75-.18-1.15-.37l.59-1.17c-.37-.43-.27-1.04.16-1.32.45-.3,1.09-.12,1.29.37.22.52-.08,1.08-.67,1.21l-.22,1.29Z"/>
        <path class="cls-1" d="M54.35,67.71l-5.61-1.85-.16-.16s.08-.17.13-.2l1.34-.6c.22-.1.55-.11.79-.03l2.99.99c.17.06.43.27.48.42l.35,1.12c.04.13-.12.32-.31.31Z"/>
      </g>
    </g>
  </g>
</svg>