<?xml version="1.0" encoding="UTF-8"?>
<svg fill="#034ea2" id="Layer_2" data-name="Layer 2" xmlns="http://www.w3.org/2000/svg" viewBox="0 0 201.54 239.5">
  <g id="Layer_1-2" data-name="Layer 1">
    <g>
      <path d="M107.53,237.63c-4.51,2.69-8.44,2.26-12.72.14-16.51-8.2-32.04-16.9-46.23-28.81-14.8-12.42-27.39-26.43-36.17-43.78C5.85,152.21.41,138.31.35,123.52L0,48.53c-.01-2.69.4-5.79,1.94-7.55,1.31-1.5,4.35-2.38,7.03-2.88,30.7-5.69,59.08-18.28,84.95-35.54,5.45-3.64,9.28-3.27,14.75.31,26.08,17.06,54.56,29.62,85.28,35.29,4.68.86,7.6,3.49,7.58,8.42l-.29,74.95c-.07,16.67-6.12,32.01-14,46.37-10.84,19.73-26.21,35.42-44.31,48.64l-35.41,21.1ZM179.01,155.73c5.73-12.14,9.64-24.52,9.65-38.19l.07-67.04c-24.33-4.75-47.37-13.37-69.07-25.56l-19.18-10.77c-27.41,17.68-55.81,30.36-87.76,36.51l.09,70.38c.02,14.32,5.69,27.23,11.86,39.8,17.73,30.08,44.75,50.23,76.32,64.98,32.4-15.7,61.61-37.86,78.01-70.11Z"/>
      <path d="M52.53,121.34c-1.27-6.01,7.56-12.8,10.93-9.39l27.53,27.84,53.55-58.06c5.65.98,8.92,4.68,9.65,10.01l-57.27,62.64c-1.35,1.47-3.96,3.13-5.48,3.17-1.91.06-4.6-1.79-6.13-3.32l-32.79-32.89Z"/>
    </g>
  </g>
</svg>