<?xml version="1.0" encoding="UTF-8"?>
<svg fill="#034ea2" id="Layer_2" data-name="Layer 2" xmlns="http://www.w3.org/2000/svg" viewBox="0 0 269.76 200.31">
  <g id="Layer_1-2" data-name="Layer 1">
    <g>
      <path d="M206.52,174.23l-143.57-.02-.12,13.34c-.06,7.53-6.09,12.72-13.25,12.72h-22.98c-6.98,0-13.94-5.1-14.04-12.69l-.22-16.75c-4.73-2.9-7.86-7.52-7.87-13.27l-.04-50.01c0-6.73,2.81-12.24,7.36-16.79l14.34-14.33-15.46-1.38C2.79,74.36-.04,68.77,0,61.49c.04-6.59,2.87-13.2,10.71-13.17l18.91.08c2.41.01,5.21,3.6,5,5.63-.27,2.63-3.17,4.33-5.92,4.32l-18.26-.07.07,6.67,16.13.36,2.25,8.19c3.72-2.26,5.86-5.13,7.51-9.12L58.11,11.95C60.79,5.47,69.25.1,76.63.09L192.4,0c10.91,0,17.85,7.19,21.52,16.3l20.37,50.57c1.01,2.51,3.6,4.69,5.86,6.26l3.71-7.78,15.1-.43.38-6.53-22.09-.34c-1.59-.02-2.86-4.45-2.04-5.61s2.93-3.92,4.39-3.93l19.78-.14c7.69-.05,10.19,6.8,10.37,13.09.22,7.69-3.27,13.37-11.44,13.82l-15.36.85,16.7,16.42c3.69,3.62,5.8,9.7,5.79,14.98l-.03,49.95c0,5.9-3.27,11.04-8.26,13.77l.02,17.02c0,6.53-6.47,11.89-12.73,11.92l-23.01.13c-6.14.03-14.22-3.07-14.43-10.17l-.48-15.9ZM222.86,67.32l-19.24-46.84c-1.51-5.69-6.01-8.91-12.19-9.26l-113.75.02c-6.01.51-10.02,4.25-11.64,9.71l-18.91,46.4,175.73-.02ZM248.37,162.9c3.85,0,5.96-2.99,5.96-6.3l.09-51.03c-1.02-3.42-3.06-6.79-5.69-9.16l-19.46-17.51H40.02s-19.3,17.83-19.3,17.83c-3.03,2.8-4.83,6.49-5.17,10.82l.05,49.9c0,4.33,3.58,5.44,7.28,5.44h225.47ZM52.14,189.01l.04-14.86-29.14.05-.15,11.55c-.02,1.31,2.37,3.46,3.69,3.45l25.56-.19ZM243.89,189.23c1.49.02,3-3.27,3.01-4.57l.08-10.47-30.02.08.14,14.63,26.79.33Z"/>
      <path d="M183.99,156.57l-98.36.05c-2.67,0-7.4-3.11-6.47-5.79l6.88-19.85c1.63-4.71,5.87-9.48,11.89-9.47l72.46.14c3.62,0,9.53,3.19,10.72,6.21l8.01,20.29c.47,1.2.51,4.15.09,5.26-.49,1.3-2.89,3.16-5.21,3.16ZM177.44,146.46l-5.87-13.61h-75.28s-5.07,13.49-5.07,13.49l86.21.12Z"/>
      <path d="M235.1,134.99l-36.48-.15c-5.36-3.62-8.73-14.72-7.27-19.75.79-2.72,3.88-4.92,6.94-5.86l35.38-10.83c5.22-1.6,10.91,2.39,10.97,8.24l.2,18.03c.06,5.21-3.64,10.35-9.73,10.32ZM234.87,124.68v-16.06s-33.44,10.14-33.44,10.14c.21,1.82,1.01,4.61,1.88,6.08l31.56-.15Z"/>
      <path d="M69.9,134.52l-35.24.42c-5.92.07-9.64-4.87-9.67-10.3l-.11-16.25c-.03-3.78,3.64-12.1,8.9-10.46l39.99,12.47c8.86,2.76,1.48,24.06-3.86,24.12ZM66.62,124.74l1.85-5.81-33.67-10.53.14,16.38,31.69-.05Z"/>
    </g>
  </g>
</svg>