<?xml version="1.0" encoding="UTF-8"?>
<svg id="Layer_2" data-name="Layer 2" xmlns="http://www.w3.org/2000/svg" viewBox="0 0 109.18 109.18">
  <defs>
    <style>
      .cls-1 {
        fill: #fff;
      }

      .cls-2 {
        fill: #052656;
      }
    </style>
  </defs>
  <g id="Layer_1-2" data-name="Layer 1">
    <g>
      <circle class="cls-2" cx="54.59" cy="54.59" r="54.59"/>
      <g>
        <path class="cls-1" d="M24.39,78.34h58.35c1.44,0,2.7-1.18,2.7-2.62v-21.57s2.94-3.29,2.94-3.29v24.52c.15,2.86-2.1,5.73-5.14,5.73l-59.24.02c-2.61,0-5.21-2.29-5.21-4.94l-.04-42.55c0-3.03,2.34-5.58,5.42-5.58h58.98c3.25.35,5.54,3,5.17,6.26l-2.85,2.52-.05-3.33c-.03-1.67-1.47-2.73-3.07-2.73H24.62c-1.61,0-2.88,1.28-2.88,2.86v42.04c0,1.37,1.21,2.67,2.65,2.67Z"/>
        <path class="cls-1" d="M88.11,48.56c-3.33,4.01-6.88,7.62-10.65,11.13-.21.1-.45.1-.59-.03l-4.12-3.72,8.96-9.65,6.87-7.19c.17-.35.56-.5.84-.27l3.68,2.96c-1.65,2.34-3.16,4.56-5,6.78Z"/>
        <path class="cls-1" d="M77.78,36.99h-44.39c-.56,0-.84-.71-.8-1.09.03-.35.39-1,.92-1h44.21c.54,0,.84.67.89,1.01.05.35-.18,1.09-.83,1.09Z"/>
        <path class="cls-1" d="M63.35,59.72l-2.54,1.14c-1.36.61-3.07.92-3.46-.18-.2-.55.01-1.19.16-1.72l.42-1.47c-.76.34-1.23.67-1.79,1.14l-3.55,2.95c-.83.7-2.17,1.12-2.84.44-.87-.89.49-2.83,1.26-4.23l2.38-4.36c.38-.69.59-1.37.62-2.27-.67.23-1.2.59-1.72,1.06-2.15,1.94-4.05,4.06-5.88,6.31l-3.29,4.03c-.28.34-.8.42-1.09.23-.36-.24-.41-.72-.13-1.1,1.79-2.36,3.62-4.61,5.62-6.81l3.09-3.08c.76-.76,1.66-1.33,2.62-1.8.52-.26,1.24-.34,1.77-.14,1.64.62.34,3.53-.61,5.13l-2.37,4.02c-.31.52-.5,1.01-.61,1.62.45-.19.67-.35.96-.58l4.11-3.33c.81-.66,2.03-1.14,2.74-.57,1.18.95-.59,3.56-.04,3.77.11.04.37.05.48,0l3.47-1.45c.44-.18,1.01-.16,1.34.11s.46.82.39,1.27l-.2,1.38,2.28.07c.18,0,.48.29.57.45.1.17,0,.71-.21.78l-1.3-.13-2.28.03c-.71,0-.94-.92-.7-1.49.18-.42.26-.58.34-1.26Z"/>
        <rect class="cls-1" x="36.01" y="64.68" width="31.09" height="1.51"/>
        <path class="cls-1" d="M81.98,44.95c-.28.3-.85.24-1.07.04-.25-.23-.25-.67.03-.98l2.82-3.12,4.39-4.77c.55-.6,1.37-.53,1.88.02.11.12.46.28.64.28l1.62-1.52c.93-.88,2.04-.71,2.92.14.72.69,1.17,1.69.53,2.61l-2.07,3-2.13-1.95c-.68-.62-1.4-1.13-2.23-1.59l-7.32,7.85Z"/>
        <path class="cls-1" d="M69.57,64.88c-.52.22-1.13.24-1.4-.27-.17-.33-.02-.88.15-1.25l3.78-6.5,4.05,3.77c-2.17,1.55-4.31,2.89-6.58,4.25ZM69.25,64.09l1.65-1-.62-1.23-1.1,1.59c-.11.17-.11.54.06.64Z"/>
        <path class="cls-1" d="M58.48,76.86l-9.66.03c-.61,0-.97-.62-.96-1.11,0-.44.37-1.09.99-1.09h9.36c.52,0,.92.52.99.87.08.39-.1,1.29-.72,1.3Z"/>
        <circle class="cls-1" cx="27.36" cy="36.11" r="1.7"/>
      </g>
    </g>
  </g>
</svg>