<?xml version="1.0" encoding="UTF-8"?>
<svg fill="#000" id="Layer_2" data-name="Layer 2" xmlns="http://www.w3.org/2000/svg" viewBox="0 0 179.87 183.01">
  <g id="Layer_1-2" data-name="Layer 1">
    <g>
      <path d="M173.43,117.93l-58.46,58.17c-6.36,6.32-18.72,10.32-26.2,2.9L8.62,99.48C3.45,94.36-.01,89.49,0,81.91L.11,18.02C.13,7.65,8.91-.03,18.89,0l59.02.17c3.84.01,9.15,2.31,11.8,5.02l44.08,44.95,42.37,43.57c6.56,6.74,3.63,17.89-2.74,24.22ZM172.39,111.1c3.75-6.46,1.83-12.27-2.71-16.88l-30.31-30.71L88.47,11.51c-3.13-3.2-6.97-6.25-11.72-6.25l-59.6-.04c-5.39,1.14-11.63,5.14-11.65,11.33l-.15,65.12c-.01,5.81,2.62,9.54,6.56,13.49l78.27,78.42c4.7,4.71,13.75,5.81,18.51,1.06l63.71-63.55Z"/>
      <path d="M110.03,120.5c-11.95,10.75-26.22,3.38-23.88-.5,3.01-5,9.63,7.4,20.45-3.74l-18.13-19.19c-7.81,4.97-16.18,6.4-23.02,1.36-9.17-6.76-8.53-19.9-.06-27.13l-3.34-3.54c-.5-.53-.9-2.22-.8-2.94.13-.9,2.75-2.2,3.41-1.56l4.62,4.47c3.9-2.83,8.3-5.28,13.37-5.24,3.43.03,7.63,2.94,8.93,5.55.07.84-1.6,3.47-2.41,3.06l-3.62-1.82c-4.39-2.21-9.24-.73-13.21,2.78l17.72,18.81c11.66-6.07,24.38-3.84,28.51,7.11,2.48,6.58.8,12.96-4.68,18.49l3.57,4.31c.74.89,1.45,3.04.74,3.78-1.02,1.07-3.51.9-4.43-.07l-3.75-3.99ZM84.79,92.73l-15.86-17.37c-3.29,2.88-5,6.78-4.83,10.98.12,3.12,2.49,6.88,5.81,8.58,5.13,2.62,11.17.83,14.88-2.18ZM110.16,112.9c4.42-4.5,5.98-11.8,1.44-16.51s-11.44-4.78-17.97-1.51l16.53,18.02Z"/>
      <path d="M46.12,33.82c0,6.71-5.44,12.14-12.14,12.14s-12.14-5.44-12.14-12.14,5.44-12.14,12.14-12.14,12.14,5.44,12.14,12.14ZM41.01,33.83c0-3.87-3.14-7.01-7.01-7.01s-7.01,3.14-7.01,7.01,3.14,7.01,7.01,7.01,7.01-3.14,7.01-7.01Z"/>
    </g>
  </g>
</svg>