<?xml version="1.0" encoding="UTF-8"?>
<svg id="Layer_2" data-name="Layer 2" xmlns="http://www.w3.org/2000/svg" viewBox="0 0 666.13 365.01">
  <defs>
    <style>
      .cls-1 {
        fill: #fff;
      }

      .cls-2 {
        fill: #ffdd15;
      }
    </style>
  </defs>
  <g id="Additional_text" data-name="Additional text">
    <g>
      <path class="cls-2" d="M63.23,128.9s-45.3-19.66-32.66-45.65c6.97-14.33,35.93-30.4,80.06-42.84,46.67-13.15,109.84-22.38,163.98-25.98,99.38-6.63,195.23-2.46,274.94,6.32,62.9,6.93,116.58,24.58,116.58,24.58,0,0-94.1-46.7-332.18-45.3C175.94.96,81.84,27.42,65.34,34.09c-12.97,5.24-33.71,13.08-47.05,22.12C1.59,67.52-5.6,80.91,4.94,95.54c14.46,20.08,58.29,33.36,58.29,33.36Z"/>
      <g>
        <path class="cls-1" d="M49.21,165.69l60.84-113.08h-19.77c-8.27,0-14.91,2.39-19.92,7.17-2.15,2.11-3.88,4.76-5.21,7.92-1.32,3.17-2.55,7.42-3.68,12.76h-3.98l2.3-35.03h82.45l-61.91,113.09h27.74c10.62,0,19.16-3.34,25.59-10.01,2.96-3.22,5.16-6.52,6.59-9.92,1.43-3.39,2.61-8.26,3.52-14.6l4.44-.16-3.98,41.86H49.21Z"/>
        <path class="cls-1" d="M156.31,165.69v-3.61h1c2.41,0,4.19-.21,5.36-.62,2.41-.58,3.82-2.16,4.23-4.74.17-.67.25-2.16.25-4.49v-62.91c0-2.49-.08-4.13-.25-4.92-.17-.79-.7-1.68-1.62-2.68-1.42-1.5-4.15-2.24-8.22-2.24h-.75v-3.61h69.74v25.04h-3.11c-.66-3.99-1.43-6.96-2.31-8.91-.87-1.95-2.3-3.84-4.3-5.67-3.82-3.4-8.42-5.11-13.82-5.11h-15.07v36.13h1.99c4.98,0,8.68-1.99,11.08-5.98,1-1.58,1.75-3.24,2.25-4.98.5-1.75,1.08-4.56,1.74-8.47h3.11v43.97h-3.49c0-3.65-.21-6.31-.62-7.97-.42-1.66-1.24-3.57-2.49-5.73-2.66-3.74-6.15-5.6-10.46-5.6h-3.11v27.9c0,1.32.02,2.68.06,4.05.04,1.37.39,2.47,1.06,3.3.99,1.66,3.2,2.49,6.6,2.49h7.47c3.07,0,6.18-.57,9.34-1.74,3.15-1.16,5.89-2.74,8.22-4.74,1.91-1.65,3.42-3.55,4.55-5.66,1.12-2.11,2.34-5.5,3.67-10.15l3.11.74-4.24,26.91h-70.98Z"/>
        <path class="cls-1" d="M238.5,78.77v-3.61h42.77v3.61h-.64c-3.97,0-6.68.71-8.12,2.12-1.44,1.41-2.16,4.03-2.16,7.85v65.52c0,1.91.64,3.57,1.91,4.98.85.75,1.88,1.29,3.11,1.62,1.22.34,2.98.5,5.27.5h.64v3.62h-42.39v-3.62h.65c2.51,0,4.33-.2,5.46-.62,1.21-.25,2.23-.79,3.05-1.62.82-.83,1.36-1.86,1.63-3.12v-67.39c0-2.32-.12-3.92-.38-4.79-.25-.88-.8-1.81-1.64-2.8-1.27-1.49-4.02-2.24-8.25-2.24h-.88Z"/>
        <path class="cls-1" d="M360.52,74.54h2.67v28.52l-2.8.13c-1.05-3.47-2.15-6.2-3.28-8.18-1.14-1.99-2.89-4.17-5.24-6.57-3-2.97-5.97-5.12-8.89-6.44-2.93-1.32-6.22-1.99-9.88-1.99-8.27,0-14.33,3.41-18.14,10.22-3.82,6.81-5.72,17.56-5.72,32.26,0,7.14.32,12.93.98,17.37.65,4.45,1.83,8.33,3.53,11.65,3.25,6.48,9.22,9.72,17.91,9.72,3.74,0,7.67-.96,11.81-2.87v-20.3c0-2.57-.08-4.24-.25-4.98-.16-.75-.65-1.66-1.46-2.75-1.22-1.49-3.77-2.24-7.67-2.24h-1.22v-3.61h40.32v3.61h-1.21c-3.33,0-5.62.73-6.89,2.18-1.25,1.45-1.88,4.05-1.88,7.79v20.8c-2.59,1.49-4.67,2.55-6.21,3.12-1.54.57-3.58,1.2-6.09,1.86-6.33,1.74-12.5,2.62-18.51,2.62-12.91,0-23.63-4.15-32.16-12.47-8.52-8.3-12.79-18.84-12.79-31.63,0-6.39,1.27-12.83,3.82-19.31,2.55-6.47,5.97-11.91,10.26-16.32,7.69-8.14,17.48-12.2,29.38-12.2,4.94,0,9.35.66,13.23,1.99l7.53,2.49c1.05.42,2.15.62,3.28.62,1.7,0,2.84-.28,3.46-.85.6-.56,1.31-1.99,2.12-4.25"/>
        <path class="cls-1" d="M381.42,80.21v-3.61h44.62v3.61h-1.54c-2.9,0-4.99.17-6.28.5-3.08.83-4.87,3.07-5.38,6.73v65.64c0,2.16.05,3.57.13,4.24.08.66.37,1.28.87,1.87,1.26,1.24,3.44,1.88,6.54,1.88h9.17c2.85,0,5.62-.76,8.29-2.25,2.68-1.49,5.12-3.61,7.29-6.35,1.6-2.07,2.99-4.61,4.21-7.6,1.22-2.98,2.54-7.05,3.96-12.2h2.89l-4.02,33.76h-70.76v-3.62h.62c2.01,0,3.61-.21,4.78-.62,2.93-.67,4.65-2.25,5.15-4.74.26-.92.38-2.41.38-4.49v-62.78c0-2.41-.12-4.05-.38-4.92-.25-.88-.83-1.81-1.76-2.8-1.67-1.5-4.31-2.24-7.92-2.24h-.87Z"/>
        <path class="cls-1" d="M463.41,164.97v-3.62h1.01c2.45,0,4.27-.2,5.45-.61,2.45-.58,3.89-2.16,4.31-4.74.17-.67.26-2.16.26-4.49v-62.91c0-2.48-.08-4.13-.26-4.91-.17-.79-.72-1.69-1.65-2.68-1.44-1.49-4.24-2.24-8.38-2.24h-.75v-3.62h71.07v25.04h-3.18c-.68-3.99-1.46-6.95-2.35-8.91-.89-1.95-2.34-3.84-4.37-5.67-3.89-3.4-8.59-5.11-14.09-5.11h-15.35v36.13h2.03c5.08,0,8.84-2,11.3-5.98,1.01-1.58,1.78-3.24,2.29-4.98.51-1.75,1.1-4.57,1.77-8.47h3.18v43.97h-3.56c0-3.65-.21-6.3-.63-7.97-.42-1.66-1.26-3.57-2.54-5.73-2.71-3.74-6.26-5.6-10.66-5.6h-3.18v27.9c0,1.33.02,2.67.06,4.05.05,1.37.4,2.47,1.08,3.29,1.01,1.68,3.26,2.5,6.73,2.5h7.62c3.13,0,6.29-.57,9.51-1.74,3.21-1.17,6.01-2.74,8.38-4.74,1.94-1.65,3.49-3.55,4.63-5.66,1.14-2.12,2.39-5.51,3.75-10.16l3.17.75-4.31,26.91h-72.33Z"/>
        <path class="cls-1" d="M544.41,48.12v-4.83h49.37c12.62,0,22.41,2.89,29.38,8.67,6.96,5.78,10.45,13.96,10.45,24.52,0,16.9-8.02,27.19-24.08,30.85l21.36,38.2,1.82,3.68c3.33,6.33,7.01,9.5,11.05,9.5h.75v4.84h-30.59l-27.86-54.21h-3.79v36.19c0,3.56.1,5.81.3,6.76.21.95.91,2.14,2.12,3.59,1.11,1,2.4,1.72,3.87,2.16,1.45.45,3.76.67,6.89.67h1.97v4.84h-53.01v-4.84h1.06c2.93,0,5.1-.28,6.51-.83,2.82-.78,4.59-2.89,5.3-6.33.19-1.78.3-3.78.3-6.01V61.47c0-3-.14-5.17-.46-6.5-.3-1.33-.9-2.61-1.81-3.84-1.51-2-4.74-3-9.7-3h-1.2ZM582.27,51.46v51.03c4.14,0,7.19-.14,9.15-.42,1.97-.28,3.91-.75,5.84-1.42,3.03-1.33,5.3-3.34,6.82-6.01,2.72-4.45,4.09-10.56,4.09-18.34,0-12.79-3.49-20.46-10.46-23.02-2.11-.77-4.03-1.28-5.75-1.5-1.72-.22-4.95-.33-9.69-.33"/>
      </g>
      <g>
        <path class="cls-1" d="M233.07,180.02h6.75v15.98h18.34v-15.98h6.75v38.43h-6.75v-16.2h-18.34v16.2h-6.75v-38.43Z"/>
        <path class="cls-1" d="M286.72,204.13v-.11c0-8.29,6.59-15.15,15.48-15.15s15.43,6.75,15.43,15.04v.11c0,8.24-6.59,15.1-15.54,15.1s-15.37-6.75-15.37-14.99ZM310.98,204.13v-.11c0-5.11-3.68-9.33-8.89-9.33s-8.73,4.17-8.73,9.22v.11c0,5.05,3.68,9.28,8.84,9.28s8.78-4.17,8.78-9.17Z"/>
        <path class="cls-1" d="M338.6,189.47h6.7v4.45c1.87-2.69,4.56-5.05,9.06-5.05,6.53,0,10.32,4.39,10.32,11.09v18.5h-6.64v-16.47c0-4.5-2.25-7.08-6.2-7.08s-6.53,2.69-6.53,7.19v16.36h-6.7v-28.99Z"/>
        <path class="cls-1" d="M385.5,204.02v-.11c0-9.61,6.53-15.04,13.45-15.04,4.78,0,7.8,2.36,9.88,5.11v-15.59h6.64v40.08h-6.64v-4.83c-2.14,3.02-5.16,5.43-9.88,5.43-6.81,0-13.45-5.43-13.45-15.04ZM408.94,204.02v-.11c0-5.6-3.95-9.28-8.4-9.28s-8.35,3.57-8.35,9.28v.11c0,5.6,3.84,9.28,8.35,9.28s8.4-3.73,8.4-9.28Z"/>
        <path class="cls-1" d="M436.12,210.11v-.11c0-6.26,4.94-9.33,12.02-9.33,3.24,0,5.54.49,7.8,1.21v-.71c0-4.12-2.53-6.31-7.19-6.31-3.24,0-5.65.71-8.29,1.81l-1.81-5.22c3.24-1.43,6.37-2.36,10.98-2.36,4.34,0,7.58,1.15,9.61,3.24,2.14,2.09,3.13,5.16,3.13,8.95v17.18h-6.48v-3.62c-1.98,2.36-5,4.23-9.44,4.23-5.44,0-10.32-3.13-10.32-8.95ZM456.05,208.02v-1.98c-1.7-.66-3.95-1.15-6.59-1.15-4.28,0-6.81,1.81-6.81,4.83v.11c0,2.8,2.47,4.39,5.65,4.39,4.39,0,7.74-2.53,7.74-6.2Z"/>
      </g>
      <polygon class="cls-2" points="241.54 326.91 246.62 340.99 261.57 341.46 249.75 350.64 253.92 365.01 241.54 356.6 229.16 365.01 233.34 350.64 221.51 341.46 236.47 340.99 241.54 326.91"/>
      <polygon class="cls-2" points="293.11 326.91 298.19 340.99 313.14 341.46 301.32 350.64 305.49 365.01 293.11 356.6 280.73 365.01 284.91 350.64 273.08 341.46 288.04 340.99 293.11 326.91"/>
      <polygon class="cls-2" points="343.31 326.91 348.38 340.99 363.34 341.46 351.52 350.64 355.69 365.01 343.31 356.6 330.93 365.01 335.1 350.64 323.28 341.46 338.23 340.99 343.31 326.91"/>
      <polygon class="cls-2" points="394.88 326.91 399.95 340.99 414.91 341.46 403.09 350.64 407.26 365.01 394.88 356.6 382.5 365.01 386.67 350.64 374.85 341.46 389.8 340.99 394.88 326.91"/>
      <polygon class="cls-2" points="444.91 326.91 449.98 340.99 464.94 341.46 453.11 350.64 457.29 365.01 444.91 356.6 432.53 365.01 436.7 350.64 424.88 341.46 439.83 340.99 444.91 326.91"/>
      <g>
        <path class="cls-1" d="M75.99,246.67h48.34v14.08h-31.85v9.19h28.85v13.14h-28.85v9.53h32.28v14.17h-48.77v-60.1Z"/>
        <path class="cls-1" d="M188.21,246.67l-19.75,29.28,20.61,30.82h-19.15l-11.51-18.2-11.59,18.2h-18.72l20.61-30.57-19.75-29.54h19.15l10.56,16.91,10.82-16.91h18.72Z"/>
        <path class="cls-1" d="M192.76,246.67h25.84c15.11,0,24.9,7.81,24.9,21.04v.17c0,14.25-10.9,21.72-25.76,21.72h-8.33v17.17h-16.66v-60.1ZM217.4,276.55c5.84,0,9.53-3.18,9.53-7.9v-.17c0-5.15-3.69-7.81-9.62-7.81h-7.9v15.88h7.98Z"/>
        <path class="cls-1" d="M247.97,246.67h48.34v14.08h-31.85v9.19h28.85v13.14h-28.85v9.53h32.28v14.17h-48.77v-60.1Z"/>
        <path class="cls-1" d="M302.74,246.67h28.42c9.19,0,15.54,2.4,19.58,6.44,3.52,3.52,5.32,8.07,5.32,14v.17c0,9.27-4.89,15.37-12.36,18.55l14.34,20.95h-19.15l-12.11-18.2h-7.38v18.2h-16.66v-60.1ZM330.48,275.52c5.58,0,8.93-2.75,8.93-7.13v-.17c0-4.81-3.52-7.21-9.02-7.21h-10.99v14.51h11.08Z"/>
        <path class="cls-1" d="M362.33,246.67h16.66v60.1h-16.66v-60.1Z"/>
        <path class="cls-1" d="M387.4,246.67h48.34v14.08h-31.85v9.19h28.85v13.14h-28.85v9.53h32.28v14.17h-48.77v-60.1Z"/>
        <path class="cls-1" d="M442.18,246.67h15.54l24.73,31.77v-31.77h16.49v60.1h-14.51l-25.76-32.97v32.97h-16.49v-60.1Z"/>
        <path class="cls-1" d="M503.31,276.89v-.17c0-17.52,13.39-31.25,31.6-31.25,12.28,0,20.18,5.15,25.5,12.45l-12.54,9.7c-3.43-4.21-7.38-7.04-13.14-7.04-8.41,0-14.34,7.21-14.34,15.97v.17c0,9.02,5.92,16.06,14.34,16.06,6.27,0,9.96-2.92,13.57-7.3l12.54,8.93c-5.67,7.81-13.31,13.57-26.53,13.57-17.17,0-31-13.14-31-31.08Z"/>
        <path class="cls-1" d="M563.75,246.67h48.34v14.08h-31.85v9.19h28.85v13.14h-28.85v9.53h32.28v14.17h-48.77v-60.1Z"/>
      </g>
      <path class="cls-2" d="M207.52,348.96s-100-1.6-100-1.6c-.22,0-.4-.19-.39-.41,0-.22.18-.39.39-.39l100-1.6c2.65.02,2.71,3.96,0,4h0Z"/>
      <path class="cls-2" d="M576.23,347.36l-100,1.6c-1.1.02-2.01-.86-2.03-1.97-.02-1.13.91-2.05,2.03-2.03,0,0,100,1.6,100,1.6.22,0,.4.19.39.41,0,.22-.18.39-.39.39h0Z"/>
    </g>
  </g>
</svg>