<?xml version="1.0" encoding="UTF-8"?>
<svg id="Layer_2" data-name="Layer 2" xmlns="http://www.w3.org/2000/svg" viewBox="0 0 345.51 191.95">
  <defs>
    <style>
      .cls-1 {
        fill: #ffde17;
      }

      .cls-2 {
        letter-spacing: .26em;
      }

      .cls-3 {
        font-size: 28.48px;
      }

      .cls-3, .cls-4, .cls-5 {
        fill: #fff;
      }

      .cls-3, .cls-5 {
        font-family: Gotham-Medium, Gotham;
        font-weight: 500;
      }

      .cls-6 {
        letter-spacing: 0em;
      }

      .cls-7 {
        letter-spacing: -.07em;
      }

      .cls-8 {
        letter-spacing: -.05em;
      }

      .cls-9 {
        letter-spacing: -.05em;
      }

      .cls-5 {
        font-size: 50.67px;
        stroke: #fff;
        stroke-miterlimit: 10;
        stroke-width: 1.05px;
      }

      .cls-10 {
        letter-spacing: -.03em;
      }
    </style>
  </defs>
  <g id="Layer_1-2" data-name="Layer 1">
    <g>
      <path class="cls-1" d="M32.8,66.86s-23.5-10.2-16.94-23.68c3.62-7.44,18.64-15.77,41.53-22.22,24.21-6.82,56.97-11.61,85.05-13.48,51.54-3.44,101.26-1.27,142.61,3.28,32.63,3.59,60.47,12.75,60.47,12.75,0,0-48.81-24.22-172.29-23.5C91.26.5,42.45,14.22,33.89,17.68c-6.73,2.72-17.48,6.78-24.41,11.47C.82,35.02-2.9,41.97,2.56,49.56c7.5,10.41,30.23,17.3,30.23,17.3Z"/>
      <g>
        <path class="cls-4" d="M25.53,85.94l31.55-58.65h-10.25c-4.29,0-7.74,1.24-10.33,3.72-1.11,1.1-2.01,2.47-2.7,4.11-.69,1.65-1.32,3.85-1.91,6.62h-2.06l1.19-18.17h42.77l-32.11,58.66h14.39c5.51,0,9.94-1.73,13.28-5.19,1.54-1.67,2.67-3.38,3.42-5.15.74-1.76,1.35-4.28,1.83-7.57l2.3-.09-2.07,21.71H25.53Z"/>
        <path class="cls-4" d="M81.07,85.94v-1.87h.52c1.25,0,2.18-.11,2.78-.32,1.25-.3,1.98-1.12,2.2-2.46.09-.35.13-1.12.13-2.33v-32.63c0-1.29-.04-2.14-.13-2.55-.09-.41-.36-.87-.84-1.39-.73-.78-2.15-1.16-4.26-1.16h-.39v-1.87h36.17v12.99h-1.62c-.34-2.07-.74-3.61-1.2-4.62-.45-1.01-1.19-1.99-2.23-2.94-1.98-1.76-4.37-2.65-7.17-2.65h-7.81v18.74h1.03c2.58,0,4.5-1.03,5.75-3.1.52-.82.91-1.68,1.17-2.58.26-.91.56-2.37.9-4.39h1.62v22.81h-1.81c0-1.9-.11-3.27-.32-4.13-.22-.86-.65-1.85-1.29-2.97-1.38-1.94-3.19-2.91-5.43-2.91h-1.62v14.47c0,.69.01,1.39.03,2.1.02.71.2,1.28.55,1.71.52.86,1.66,1.29,3.42,1.29h3.88c1.59,0,3.21-.3,4.84-.9,1.63-.6,3.06-1.42,4.26-2.46.99-.86,1.78-1.84,2.36-2.94.58-1.1,1.22-2.85,1.91-5.26l1.62.38-2.2,13.96h-36.82Z"/>
        <path class="cls-4" d="M123.71,40.86v-1.87h22.18v1.87h-.33c-2.06,0-3.47.37-4.21,1.1-.75.73-1.12,2.09-1.12,4.07v33.98c0,.99.33,1.85.99,2.58.44.39.98.67,1.61.84.64.17,1.55.26,2.73.26h.33v1.88h-21.99v-1.88h.34c1.3,0,2.25-.1,2.83-.32.63-.13,1.16-.41,1.58-.84.43-.43.71-.97.84-1.62v-34.95c0-1.2-.06-2.03-.2-2.49-.13-.45-.42-.94-.85-1.45-.66-.77-2.09-1.16-4.28-1.16h-.46Z"/>
        <path class="cls-4" d="M187,38.66h1.38v14.79l-1.45.07c-.55-1.8-1.12-3.22-1.7-4.24-.59-1.03-1.5-2.16-2.72-3.41-1.56-1.54-3.1-2.66-4.61-3.34-1.52-.69-3.23-1.03-5.12-1.03-4.29,0-7.43,1.77-9.41,5.3-1.98,3.53-2.97,9.11-2.97,16.73,0,3.71.17,6.71.51,9.01.33,2.31.95,4.32,1.83,6.04,1.68,3.36,4.78,5.04,9.29,5.04,1.94,0,3.98-.5,6.13-1.49v-10.53c0-1.33-.04-2.2-.13-2.58-.08-.39-.33-.86-.76-1.42-.63-.77-1.96-1.16-3.98-1.16h-.64v-1.88h20.91v1.88h-.63c-1.73,0-2.92.38-3.57,1.13-.65.75-.98,2.1-.98,4.04v10.79c-1.34.77-2.42,1.32-3.22,1.62-.8.3-1.86.62-3.16.97-3.28.9-6.48,1.36-9.6,1.36-6.7,0-12.26-2.15-16.68-6.47-4.42-4.31-6.63-9.77-6.63-16.41,0-3.31.66-6.66,1.98-10.02,1.32-3.36,3.1-6.18,5.32-8.46,3.99-4.22,9.07-6.33,15.24-6.33,2.56,0,4.85.34,6.86,1.03l3.9,1.29c.55.22,1.11.32,1.7.32.88,0,1.48-.15,1.79-.44.31-.29.68-1.03,1.1-2.21"/>
        <path class="cls-4" d="M197.84,41.6v-1.87h23.14v1.87h-.8c-1.5,0-2.59.09-3.25.26-1.6.43-2.53,1.59-2.79,3.49v34.05c0,1.12.02,1.85.07,2.2.04.34.19.67.45.97.66.64,1.79.97,3.39.97h4.76c1.48,0,2.91-.39,4.3-1.17,1.39-.77,2.65-1.87,3.78-3.29.83-1.08,1.55-2.39,2.18-3.94.63-1.55,1.32-3.66,2.05-6.33h1.5l-2.08,17.51h-36.7v-1.88h.32c1.04,0,1.87-.11,2.48-.32,1.52-.35,2.41-1.17,2.67-2.46.13-.48.2-1.25.2-2.33v-32.56c0-1.25-.06-2.1-.2-2.55-.13-.45-.43-.94-.91-1.45-.87-.78-2.24-1.16-4.11-1.16h-.45Z"/>
        <path class="cls-4" d="M240.36,85.57v-1.88h.53c1.27,0,2.21-.1,2.83-.32,1.27-.3,2.02-1.12,2.24-2.46.09-.35.13-1.12.13-2.33v-32.63c0-1.29-.04-2.14-.13-2.55-.09-.41-.37-.88-.85-1.39-.75-.77-2.2-1.16-4.35-1.16h-.39v-1.88h36.86v12.99h-1.65c-.35-2.07-.76-3.6-1.22-4.62-.46-1.01-1.22-1.99-2.27-2.94-2.02-1.77-4.46-2.65-7.31-2.65h-7.96v18.74h1.05c2.63,0,4.58-1.04,5.86-3.1.53-.82.92-1.68,1.19-2.58.26-.91.57-2.37.92-4.39h1.65v22.81h-1.85c0-1.9-.11-3.27-.33-4.13-.22-.86-.66-1.85-1.32-2.97-1.4-1.94-3.25-2.91-5.53-2.91h-1.65v14.47c0,.69,0,1.38.03,2.1.02.71.21,1.28.56,1.71.53.87,1.69,1.3,3.49,1.3h3.95c1.62,0,3.26-.3,4.93-.9,1.67-.61,3.12-1.42,4.35-2.46,1.01-.86,1.81-1.84,2.4-2.94.59-1.1,1.24-2.86,1.94-5.27l1.64.39-2.24,13.96h-37.52Z"/>
        <path class="cls-4" d="M282.38,24.96v-2.51h25.61c6.54,0,11.63,1.5,15.24,4.5,3.61,3,5.42,7.24,5.42,12.72,0,8.76-4.16,14.1-12.49,16l11.08,19.81.94,1.91c1.73,3.28,3.64,4.93,5.73,4.93h.39v2.51h-15.87l-14.45-28.12h-1.96v18.77c0,1.85.05,3.01.15,3.5.11.49.47,1.11,1.1,1.86.58.52,1.25.89,2,1.12.75.23,1.95.35,3.57.35h1.02v2.51h-27.49v-2.51h.55c1.52,0,2.64-.14,3.38-.43,1.46-.4,2.38-1.5,2.75-3.29.1-.92.15-1.96.15-3.12V31.88c0-1.56-.07-2.68-.24-3.37-.15-.69-.47-1.35-.94-1.99-.78-1.04-2.46-1.56-5.03-1.56h-.62ZM302.02,26.69v26.47c2.15,0,3.73-.07,4.75-.22,1.02-.14,2.03-.39,3.03-.73,1.57-.69,2.75-1.73,3.54-3.12,1.41-2.31,2.12-5.48,2.12-9.51,0-6.63-1.81-10.61-5.42-11.94-1.1-.4-2.09-.67-2.98-.78-.89-.12-2.57-.17-5.03-.17"/>
      </g>
      <text class="cls-3" transform="translate(118.33 113.31)"><tspan class="cls-2" x="0" y="0">Hond</tspan><tspan class="cls-6" x="106.74" y="0">a</tspan></text>
      <g>
        <text class="cls-5" transform="translate(20.54 165.81)"><tspan x="0" y="0">E</tspan><tspan class="cls-10" x="33.95" y="0">X</tspan><tspan class="cls-7" x="69.36" y="0">P</tspan><tspan class="cls-8" x="99.41" y="0">ER</tspan><tspan class="cls-7" x="164.92" y="0">I</tspan><tspan class="cls-9" x="177.18" y="0">E</tspan><tspan class="cls-7" x="208.59" y="0">N</tspan><tspan class="cls-9" x="244.82" y="0">C</tspan><tspan x="279.72" y="0">E</tspan></text>
        <g>
          <polygon class="cls-1" points="123.78 187.84 117.91 191.9 119.11 187.59 119.9 185.05 114.73 180.91 117.86 180.67 121.49 180.58 123.74 173.92 125.95 180.6 129.86 180.66 132.74 180.92 127.48 185.05 129.38 191.9 123.78 187.84"/>
          <polygon class="cls-1" points="183.52 191.89 177.78 187.83 171.99 191.95 174.08 185.06 168.85 180.87 175.56 180.62 177.85 173.93 180.11 180.56 183.69 180.67 186.84 180.92 181.56 185.04 183.52 191.89"/>
          <polygon class="cls-1" points="156.27 191.7 150.8 187.89 145.16 191.78 146.99 185.03 141.91 180.94 148.57 180.55 150.89 173.94 153.02 180.56 156.75 180.69 159.89 180.9 157.27 182.92 154.56 185.07 156.27 191.7"/>
          <polygon class="cls-1" points="231.8 187.9 226 191.91 228.04 185.09 222.97 180.94 229.5 180.58 231.83 173.99 234.11 180.66 238.06 180.68 241.08 180.75 235.56 185 237.4 191.8 231.8 187.9"/>
          <polygon class="cls-1" points="204.83 187.87 199.11 191.83 201.05 184.99 195.84 180.89 199.39 180.67 202.62 180.54 204.89 173.95 207.06 180.56 210.88 180.66 213.77 180.92 208.61 185.01 210.42 191.81 204.83 187.87"/>
          <polygon class="cls-1" points="303.7 183.64 299.37 184.07 284 184.18 280.96 184.41 265.59 184.46 262.01 184.7 247.48 184.68 247.48 182.72 254.87 182.84 257.63 183.04 278.58 183.19 289.49 183.3 292.22 183.54 303.7 183.64"/>
          <polygon class="cls-1" points="75.78 184.19 55.23 184.06 51.05 183.68 61.4 183.46 72.5 183.31 76.34 183.12 95.7 182.92 107.35 182.69 107.36 184.69 92.98 184.53 79.37 184.41 75.78 184.19"/>
        </g>
      </g>
    </g>
  </g>
</svg>